<?xml version="1.0" standalone="no"?>
<!DOCTYPE svg PUBLIC "-//W3C//DTD SVG 20010904//EN"
 "http://www.w3.org/TR/2001/REC-SVG-20010904/DTD/svg10.dtd">
<svg version="1.0" xmlns="http://www.w3.org/2000/svg"
 width="300.000000pt" height="300.000000pt" viewBox="0 0 300.000000 300.000000"
 preserveAspectRatio="xMidYMid meet">
<metadata>
Created by potrace 1.10, written by Peter Selinger 2001-2011
</metadata>
<g transform="translate(0.000000,300.000000) scale(0.100000,-0.100000)"
fill="#000000" stroke="none">
<path d="M2101 2741 c-11 -7 -12 -13 -4 -23 8 -9 13 -378 18 -1223 4 -666 11
-1214 15 -1219 5 -4 14 -5 20 -1 9 6 11 120 6 489 -3 264 -9 816 -12 1226 -3
410 -8 748 -11 753 -6 9 -15 9 -32 -2z"/>
<path d="M1219 2712 c-466 -2 -507 -4 -522 -20 -17 -19 -20 -31 -18 -85 1 -54
21 -37 21 18 0 34 5 47 20 55 13 7 229 11 667 11 357 0 656 3 666 6 9 2 15 9
11 14 -3 6 -73 9 -172 7 -92 -2 -395 -4 -673 -6z"/>
<path d="M2180 2711 c0 -8 80 -21 138 -21 18 0 40 -8 50 -18 18 -18 19 -54 21
-703 1 -376 2 -688 2 -694 0 -5 0 -66 0 -135 -1 -69 0 -147 0 -175 0 -27 0
-127 -1 -222 -1 -95 1 -177 5 -183 4 -6 4 -23 0 -38 -3 -14 -6 -56 -6 -94 0
-85 -14 -98 -109 -98 -36 0 -72 -5 -80 -10 -10 -7 15 -10 81 -10 81 0 99 3
113 19 15 17 16 105 16 1169 0 633 -3 1159 -7 1169 -16 47 -32 53 -130 53 -51
0 -93 -4 -93 -9z"/>
<path d="M749 2563 c18 -4 21 -7 10 -13 -18 -12 -7 -22 15 -14 30 11 18 34
-16 33 -27 -1 -28 -3 -9 -6z"/>
<path d="M570 2551 c0 -5 26 -11 58 -14 31 -2 68 -7 82 -11 14 -4 5 2 -19 13
-44 21 -121 29 -121 12z"/>
<path d="M755 2514 c-24 -12 -37 -13 -70 -4 -23 6 -59 10 -80 7 -36 -3 -34 -4
12 -5 l53 -2 6 -41 c7 -42 7 -42 20 -17 7 14 25 29 39 32 14 4 25 11 25 16 0
6 7 10 15 10 8 0 15 5 15 10 0 13 1 13 -35 -6z"/>
<path d="M754 2415 c-2 -29 2 -31 22 -11 19 20 18 36 -3 36 -12 0 -18 -8 -19
-25z"/>
<path d="M633 2413 c26 -2 47 -8 47 -12 0 -5 11 -11 25 -13 14 -3 25 -1 25 3
0 5 -7 9 -16 9 -8 0 -13 3 -10 8 2 4 -23 8 -57 8 -48 1 -52 0 -14 -3z"/>
<path d="M580 2380 c0 -12 47 -12 75 0 15 6 8 9 -27 9 -27 1 -48 -3 -48 -9z"/>
<path d="M678 2368 c-2 -7 -1 -29 2 -48 l6 -35 8 28 c5 15 14 27 21 27 14 0
65 39 52 40 -5 0 -18 -5 -29 -11 -14 -8 -23 -8 -31 0 -14 14 -24 14 -29 -1z"/>
<path d="M715 2290 c-14 -6 -7 -8 25 -5 25 2 37 2 28 -1 -16 -5 -26 -34 -12
-34 10 0 34 28 34 39 0 13 -47 13 -75 1z"/>
<path d="M580 2280 c0 -5 20 -10 44 -10 24 0 53 -2 63 -5 10 -3 5 1 -12 9 -34
17 -95 21 -95 6z"/>
<path d="M630 2241 c43 -6 45 -7 51 -46 5 -35 7 -37 14 -17 4 12 18 25 31 28
13 3 28 11 33 18 8 9 1 12 -27 13 -20 1 -62 3 -92 6 -41 3 -44 3 -10 -2z"/>
<path d="M720 2150 c-10 -7 -3 -8 25 -5 22 2 32 2 23 -1 -20 -6 -24 -34 -5
-34 6 0 4 -6 -7 -12 -14 -8 -32 -7 -70 2 -28 6 -64 10 -81 8 -25 -4 -21 -6 22
-12 51 -8 52 -9 55 -45 l4 -36 12 28 c7 16 19 27 31 27 11 0 23 5 26 11 4 6
17 14 29 19 17 7 17 9 4 9 -19 1 -26 21 -8 21 6 0 10 7 10 15 0 17 -46 21 -70
5z"/>
<path d="M580 2141 c0 -5 26 -11 58 -13 31 -3 66 -9 77 -13 11 -5 17 -4 12 0
-22 25 -147 47 -147 26z"/>
<path d="M723 2012 c-6 -4 9 -7 33 -7 24 0 44 3 44 8 0 9 -61 9 -77 -1z"/>
<path d="M755 1980 c4 -11 2 -21 -4 -21 -6 -1 -17 -2 -23 -3 -7 -1 -21 2 -30
6 -16 8 -18 3 -18 -37 0 -25 5 -45 11 -45 6 0 8 8 5 18 -5 14 3 22 34 36 31
13 40 23 40 42 0 13 -5 24 -11 24 -6 0 -8 -9 -4 -20z"/>
<path d="M580 1970 c0 -5 21 -10 46 -10 27 0 43 4 39 10 -3 6 -24 10 -46 10
-21 0 -39 -4 -39 -10z"/>
<path d="M580 1870 c0 -5 22 -10 50 -10 28 0 50 -4 50 -9 0 -5 11 -11 25 -13
39 -8 29 7 -12 20 -62 18 -113 24 -113 12z"/>
<path d="M615 1830 c22 -5 44 -4 50 1 5 5 -11 9 -40 8 l-50 -1 40 -8z"/>
<path d="M760 1829 c-14 -6 -37 -8 -52 -5 -27 5 -28 4 -28 -39 0 -25 5 -45 10
-45 6 0 10 11 10 25 0 14 4 25 10 25 17 0 90 34 90 42 0 10 -9 9 -40 -3z"/>
<path d="M720 1739 c-11 -8 -7 -9 17 -4 18 4 34 2 38 -5 7 -11 25 -5 25 9 0
12 -63 12 -80 0z"/>
<path d="M585 1730 c3 -5 21 -10 40 -10 19 0 37 5 40 10 4 6 -12 10 -40 10
-28 0 -44 -4 -40 -10z"/>
<path d="M580 1700 c0 -5 21 -10 48 -10 34 0 43 3 32 10 -20 13 -80 13 -80 0z"/>
<path d="M680 1642 c0 -26 4 -41 10 -37 6 3 10 15 10 25 0 12 12 22 35 30 48
16 44 25 -10 25 l-45 1 0 -44z"/>
<path d="M580 1559 c0 -5 21 -9 47 -9 25 0 44 2 42 4 -10 8 -89 13 -89 5z"/>
<path d="M680 1508 c0 -37 -1 -38 -37 -40 -21 0 -44 -1 -50 -1 -7 1 -13 -3
-13 -8 0 -13 67 -11 91 2 11 5 24 21 29 33 5 15 20 25 39 29 46 9 38 22 -14
23 l-45 1 0 -39z"/>
<path d="M753 1435 c0 -8 6 -15 14 -15 7 0 13 -5 13 -11 0 -5 5 -7 10 -4 16
10 12 35 -5 29 -8 -4 -15 -1 -15 5 0 6 -4 11 -8 11 -5 0 -9 -7 -9 -15z"/>
<path d="M585 1420 c3 -5 24 -10 46 -10 24 0 38 4 34 10 -3 6 -24 10 -46 10
-24 0 -38 -4 -34 -10z"/>
<path d="M680 1368 c0 -42 15 -51 24 -14 4 16 15 25 36 29 45 9 36 22 -15 22
l-45 0 0 -37z"/>
<path d="M750 1300 c0 -5 5 -10 11 -10 8 0 7 -5 -2 -16 -9 -11 -23 -14 -46
-11 -32 6 -33 4 -33 -27 0 -33 -1 -34 -50 -40 -57 -8 -59 -26 -2 -25 30 0 33
2 17 9 -18 8 -18 9 5 9 30 1 44 10 52 32 4 9 20 19 37 22 18 4 31 13 31 21 0
10 6 13 15 10 9 -4 15 0 15 10 0 10 -6 13 -15 10 -8 -4 -15 -1 -15 5 0 6 -4
11 -10 11 -5 0 -10 -4 -10 -10z"/>
<path d="M590 1280 c20 -13 83 -13 75 0 -3 6 -25 10 -48 10 -31 0 -38 -3 -27
-10z"/>
<path d="M754 1189 c-3 -5 2 -9 10 -9 8 0 18 -5 22 -12 5 -8 2 -9 -9 -5 -10 3
-17 2 -17 -3 0 -6 6 -10 13 -10 6 -1 1 -7 -13 -15 -14 -8 -37 -12 -52 -9 -26
5 -28 4 -28 -30 0 -33 -3 -36 -27 -36 -16 0 -39 -3 -51 -7 -31 -8 -9 -23 33
-23 23 0 27 3 15 10 -12 8 -9 10 12 10 18 0 29 7 33 20 3 11 28 30 56 42 41
19 49 27 49 49 0 18 -6 28 -20 32 -11 3 -23 1 -26 -4z"/>
<path d="M633 1163 c-29 -2 -53 -8 -53 -12 0 -12 70 -19 77 -8 3 5 21 7 41 4
32 -6 33 -5 16 8 -11 8 -21 14 -24 13 -3 -1 -29 -3 -57 -5z"/>
<path d="M768 1050 c12 -5 22 -14 22 -20 0 -14 -17 -13 -23 3 -3 7 -6 5 -6 -5
-1 -10 5 -18 12 -18 6 0 4 -5 -7 -11 -10 -6 -33 -9 -52 -6 l-34 6 0 -45 c0
-28 4 -43 10 -39 6 3 10 14 10 23 1 16 62 52 88 52 7 0 12 15 12 35 0 32 -3
35 -27 34 -27 0 -27 -1 -5 -9z"/>
<path d="M633 1022 c-29 -2 -53 -7 -53 -13 0 -11 76 -11 104 0 29 11 8 16 -51
13z"/>
<path d="M768 910 c22 -9 31 -30 12 -30 -5 0 -10 5 -10 10 0 6 -4 10 -10 10
-18 0 -11 -30 8 -31 9 0 1 -6 -18 -14 -20 -7 -39 -9 -44 -4 -19 17 -26 8 -26
-33 0 -42 1 -43 18 -22 9 11 36 29 59 40 37 17 43 23 43 52 0 28 -3 32 -27 31
-27 0 -27 -1 -5 -9z"/>
<path d="M633 883 c-60 -5 -73 -23 -15 -22 37 0 127 16 105 18 -6 0 -17 2 -25
4 -7 2 -37 2 -65 0z"/>
<path d="M618 783 c-21 -2 -38 -9 -38 -14 0 -15 83 -6 88 9 2 6 0 11 -5 10 -4
-1 -25 -3 -45 -5z"/>
<path d="M768 770 c12 -5 22 -12 22 -16 0 -3 -7 -4 -15 0 -9 3 -15 0 -15 -9 0
-8 6 -15 13 -15 6 0 4 -5 -6 -11 -10 -6 -34 -8 -53 -5 l-34 7 0 -41 c0 -39 -1
-40 -37 -41 -21 -1 -44 -1 -50 0 -7 1 -13 -3 -13 -9 0 -14 63 -13 95 2 14 6
25 20 25 30 0 10 8 21 18 24 64 20 82 34 82 64 0 26 -3 30 -27 29 -27 0 -27
-1 -5 -9z"/>
<path d="M591 741 c-12 -8 -9 -11 11 -16 15 -4 35 -5 45 -2 14 4 12 5 -7 7
-19 2 -15 5 15 10 l40 7 -45 1 c-25 1 -52 -2 -59 -7z"/>
<path d="M768 630 c12 -5 22 -12 22 -16 0 -3 -7 -4 -15 0 -9 3 -15 0 -15 -9 0
-8 2 -15 4 -15 2 0 11 -3 20 -6 13 -5 16 1 16 25 0 27 -3 31 -27 30 -27 0 -27
-1 -5 -9z"/>
<path d="M586 601 c-7 -11 17 -21 52 -21 20 0 23 3 13 9 -11 7 -6 11 20 14 23
2 16 4 -23 5 -31 1 -59 -2 -62 -7z"/>
<path d="M680 545 l0 -35 -55 0 c-30 0 -55 -4 -55 -10 0 -5 8 -10 18 -10 16
-1 16 -1 0 -14 -24 -17 -12 -26 31 -25 l36 1 -30 9 c-25 7 -23 7 15 5 25 -2
56 -7 70 -10 23 -7 24 -7 5 5 -11 7 -40 19 -65 25 l-45 13 45 0 c37 1 47 5 55
24 6 12 20 23 32 25 12 2 27 10 33 18 15 17 3 18 -34 4 -17 -6 -26 -6 -26 0 0
6 -7 10 -15 10 -10 0 -15 -11 -15 -35z"/>
<path d="M763 493 c9 -2 17 -9 17 -14 0 -6 -4 -7 -10 -4 -5 3 -10 1 -10 -4 0
-6 6 -11 13 -12 6 0 -1 -7 -18 -14 -19 -8 -37 -10 -52 -4 -22 8 -23 6 -23 -40
0 -34 6 -56 21 -75 l21 -27 502 3 c629 3 900 10 831 21 -27 4 -194 6 -371 5
-176 -1 -326 2 -332 6 -7 4 -12 4 -12 -1 0 -4 -138 -8 -306 -8 -283 0 -307 1
-319 18 -7 10 -12 26 -10 35 2 9 4 20 4 25 1 4 9 7 20 7 10 0 24 7 31 15 7 8
18 15 25 15 6 0 12 13 13 30 1 26 -3 30 -26 29 -17 -1 -21 -3 -9 -6z"/>
</g>
</svg>
